<mxfile host="app.diagrams.net" modified="2024-03-17T15:49:20.554Z" agent="Mozilla/5.0 (Windows NT 10.0; Win64; x64; rv:123.0) Gecko/20100101 Firefox/123.0" version="24.0.7" etag="HjPKPbI1c40AHC9dhIZi" type="github">
  <diagram name="PÃ¡gina-1" id="j1RMnM1vQY1yNylEbOyN">
    <mxGraphModel>
      <root>
        <mxCell id="0" />
        <mxCell id="1" parent="0" />
      </root>
    </mxGraphModel>
  </diagram>
</mxfile>
